<svg xmlns="http://www.w3.org/2000/svg" aria-hidden="true" overflow="hidden" style="position:absolute;width:0;height:0">
  <defs>
    <symbol id="icon-twitter" viewBox="0 0 40 32">
      <path d="M39.111 3.762a16.708 16.708 0 0 1-4.62 1.266A7.97 7.97 0 0 0 38.018.596a16.023 16.023 0 0 1-5.084 1.941A8.035 8.035 0 0 0 27.077 0c-4.439 0-8.013 3.603-8.013 8.02 0 .636.054 1.247.186 1.828-6.666-.325-12.564-3.52-16.527-8.387a8.07 8.07 0 0 0-1.098 4.053 8.03 8.03 0 0 0 3.562 6.664 7.906 7.906 0 0 1-3.623-.988v.088c0 3.896 2.779 7.133 6.424 7.878a8.023 8.023 0 0 1-2.102.264c-.513 0-1.032-.029-1.518-.137 1.039 3.175 3.987 5.51 7.492 5.586a16.112 16.112 0 0 1-9.942 3.42c-.658 0-1.288-.029-1.919-.11 3.552 2.29 7.761 3.598 12.3 3.598 14.755 0 22.821-12.222 22.821-22.816 0-.354-.012-.697-.029-1.036 1.591-1.129 2.928-2.54 4.019-4.163z"/>
    </symbol>
    <symbol id="icon-instagram" viewBox="0 0 32 32">
      <path d="M10 0h12c5.522 0 10 4.478 10 10v12c0 5.522-4.478 10-10 10H10C4.478 32 0 27.522 0 22V10C0 4.478 4.478 0 10 0zm12 29c3.86 0 7-3.14 7-7V10c0-3.86-3.14-7-7-7H10c-3.86 0-7 3.14-7 7v12c0 3.86 3.14 7 7 7h12z"/>
      <path d="M8 16a8 8 0 1 1 16 0 8 8 0 0 1-16 0zm3 0c0 2.756 2.244 5 5 5s5-2.244 5-5c0-2.758-2.244-5-5-5s-5 2.242-5 5zm14.666-8.6a1.066 1.066 0 1 1-2.131 0 1.066 1.066 0 0 1 2.131 0z"/>
    </symbol>
    <symbol id="icon-facebook" viewBox="0 0 16 32">
      <path d="M12.979 5.272h2.899V.223c-.5-.069-2.22-.224-4.223-.224-4.179 0-7.042 2.629-7.042 7.46v4.447H.001v5.644h4.612v14.201h5.654v-14.2h4.425l.703-5.644h-5.129V8.019c.001-1.631.441-2.748 2.713-2.748z"/>
    </symbol>
    <symbol id="icon-arrow" viewBox="0 0 38 32">
      <path d="M.625 17.218a2.134 2.134 0 0 1 0-3.017L14.201.625a2.134 2.134 0 0 1 3.017 3.017L5.15 15.71l12.068 12.068a2.134 2.134 0 0 1-3.017 3.017L.625 17.219zm37.267.625H2.133v-4.267h35.759v4.267z"/>
    </symbol>
    <symbol id="icon-Vector" viewBox="0 0 96 32">
<path d="M81.399 1.154c0.484 1.3 1.482 2.753 2.793 4.236 1.298 1.468 2.842 2.899 4.337 4.161 1.492 1.26 2.918 2.336 3.971 3.099 0.526 0.381 0.958 0.684 1.257 0.889 0.149 0.102 0.266 0.181 0.344 0.233l0.108 0.072 0.005 0.005 1.517 0.998-1.488 1.038-0.005 0.005c-0.004 0.003-0.011 0.006-0.019 0.012-0.017 0.012-0.043 0.031-0.077 0.055-0.069 0.049-0.172 0.124-0.305 0.221-0.267 0.194-0.656 0.48-1.132 0.844-0.955 0.729-2.264 1.769-3.68 3.005-2.865 2.499-6.045 5.702-7.697 8.731l-0.589 1.082-2.161-1.178 0.589-1.082c1.874-3.436 5.341-6.879 8.24-9.409 0.885-0.772 1.731-1.466 2.478-2.063h-89.885v-2.462h89.714c-0.842-0.639-1.794-1.388-2.774-2.216-1.548-1.307-3.187-2.823-4.591-4.411-1.392-1.574-2.617-3.292-3.255-5.005l-0.43-1.154 2.305-0.861 0.43 1.154z"></path>
</symbol>
<symbol id="icon-close" viewBox="0 0 20 20">
       <path d="M10 8.586l-7.071-7.071-1.414 1.414 7.071 7.071-7.071 7.071 1.414 1.414 7.071-7.071 7.071 7.071 1.414-1.414-7.071-7.071 7.071-7.071-1.414-1.414-7.071 7.071z"></path>
    </symbol>
    <symbol id="icon-menu" viewBox="0 0 32 32">
       <path d="M29.333 24.007c0 0.733-0.595 1.327-1.327 1.327h-10.68c-0.733 0-1.327-0.594-1.327-1.327s0.594-1.327 1.327-1.327h10.68c0.733 0 1.327 0.593 1.327 1.327zM29.333 16c0 0.733-0.595 1.327-1.327 1.327h-24.013c-0.733 0-1.327-0.594-1.327-1.327s0.594-1.327 1.327-1.327h24.013c0.733 0 1.327 0.595 1.327 1.327zM28.007 9.32c0.733 0 1.327-0.594 1.327-1.327s-0.594-1.327-1.327-1.327h-16.013c-0.733 0-1.327 0.594-1.327 1.327s0.594 1.327 1.327 1.327v0z"></path>
     </symbol>
     <symbol id="icon-stars" viewBox="0 0 175 32">
<path d="M22.985 18.366c-0.332 0.322-0.485 0.788-0.409 1.244l1.14 6.311c0.096 0.535-0.13 1.076-0.577 1.385-0.439 0.321-1.022 0.359-1.501 0.103l-5.681-2.963c-0.198-0.105-0.417-0.162-0.641-0.168h-0.348c-0.121 0.018-0.239 0.056-0.346 0.116l-5.682 2.977c-0.281 0.141-0.599 0.191-0.911 0.141-0.759-0.144-1.266-0.867-1.142-1.63l1.142-6.311c0.076-0.46-0.077-0.929-0.409-1.256l-4.632-4.49c-0.387-0.376-0.522-0.94-0.345-1.449 0.172-0.508 0.611-0.879 1.14-0.962l6.375-0.925c0.485-0.050 0.911-0.345 1.129-0.781l2.809-5.759c0.067-0.128 0.153-0.246 0.257-0.346l0.115-0.090c0.060-0.067 0.13-0.122 0.207-0.167l0.14-0.051 0.218-0.090h0.54c0.482 0.050 0.907 0.339 1.129 0.77l2.846 5.734c0.205 0.419 0.604 0.711 1.065 0.781l6.375 0.925c0.539 0.077 0.989 0.449 1.167 0.962 0.168 0.514 0.023 1.079-0.372 1.449l-4.797 4.541z"></path>
<path d="M58.896 18.368c-0.332 0.322-0.485 0.788-0.409 1.244l1.14 6.311c0.096 0.535-0.13 1.076-0.577 1.385-0.439 0.321-1.022 0.359-1.501 0.103l-5.681-2.963c-0.198-0.105-0.417-0.162-0.641-0.168h-0.348c-0.121 0.018-0.238 0.056-0.346 0.116l-5.683 2.977c-0.281 0.141-0.599 0.191-0.911 0.141-0.759-0.144-1.266-0.867-1.142-1.63l1.142-6.311c0.076-0.46-0.077-0.929-0.409-1.256l-4.632-4.49c-0.387-0.376-0.522-0.94-0.345-1.449 0.172-0.508 0.611-0.879 1.14-0.962l6.375-0.925c0.485-0.050 0.911-0.345 1.129-0.781l2.809-5.759c0.067-0.128 0.153-0.246 0.257-0.346l0.116-0.090c0.060-0.067 0.13-0.122 0.206-0.167l0.14-0.051 0.218-0.090h0.54c0.482 0.050 0.907 0.339 1.129 0.77l2.846 5.734c0.205 0.419 0.604 0.711 1.065 0.781l6.375 0.925c0.539 0.077 0.989 0.449 1.167 0.962 0.168 0.514 0.023 1.079-0.372 1.449l-4.797 4.541z"></path>
<path d="M94.817 18.368c-0.332 0.322-0.485 0.788-0.409 1.244l1.14 6.311c0.096 0.535-0.13 1.076-0.577 1.385-0.439 0.321-1.022 0.359-1.501 0.103l-5.681-2.963c-0.197-0.105-0.417-0.162-0.641-0.168h-0.348c-0.12 0.018-0.238 0.056-0.346 0.116l-5.682 2.977c-0.281 0.141-0.599 0.191-0.911 0.141-0.759-0.144-1.266-0.867-1.142-1.63l1.142-6.311c0.076-0.46-0.077-0.929-0.409-1.256l-4.632-4.49c-0.387-0.376-0.522-0.94-0.345-1.449 0.172-0.508 0.611-0.879 1.14-0.962l6.375-0.925c0.485-0.050 0.911-0.345 1.129-0.781l2.809-5.759c0.067-0.128 0.153-0.246 0.257-0.346l0.115-0.090c0.060-0.067 0.13-0.122 0.206-0.167l0.14-0.051 0.218-0.090h0.54c0.482 0.050 0.907 0.339 1.129 0.77l2.846 5.734c0.205 0.419 0.604 0.711 1.065 0.781l6.375 0.925c0.539 0.077 0.989 0.449 1.167 0.962 0.168 0.514 0.023 1.079-0.372 1.449l-4.797 4.541z"></path>
<path d="M130.737 18.368c-0.332 0.322-0.485 0.788-0.409 1.244l1.14 6.311c0.096 0.535-0.13 1.076-0.577 1.385-0.439 0.321-1.022 0.359-1.501 0.103l-5.681-2.963c-0.198-0.105-0.417-0.162-0.641-0.168h-0.348c-0.121 0.018-0.239 0.056-0.346 0.116l-5.683 2.977c-0.281 0.141-0.599 0.191-0.911 0.141-0.759-0.144-1.266-0.867-1.142-1.63l1.142-6.311c0.076-0.46-0.077-0.929-0.409-1.256l-4.632-4.49c-0.388-0.376-0.522-0.94-0.345-1.449 0.172-0.508 0.611-0.879 1.14-0.962l6.375-0.925c0.485-0.050 0.911-0.345 1.129-0.781l2.809-5.759c0.067-0.128 0.153-0.246 0.257-0.346l0.116-0.090c0.060-0.067 0.13-0.122 0.206-0.167l0.14-0.051 0.218-0.090h0.54c0.482 0.050 0.907 0.339 1.129 0.77l2.846 5.734c0.205 0.419 0.604 0.711 1.065 0.781l6.375 0.925c0.539 0.077 0.989 0.449 1.167 0.962 0.168 0.514 0.023 1.079-0.372 1.449l-4.797 4.541z"></path>
<path d="M166.648 18.368c-0.332 0.322-0.485 0.788-0.409 1.244l1.14 6.311c0.096 0.535-0.13 1.076-0.577 1.385-0.439 0.321-1.022 0.359-1.501 0.103l-5.681-2.963c-0.198-0.105-0.417-0.162-0.641-0.168h-0.348c-0.121 0.018-0.239 0.056-0.346 0.116l-5.682 2.977c-0.281 0.141-0.599 0.191-0.911 0.141-0.759-0.144-1.266-0.867-1.142-1.63l1.142-6.311c0.076-0.46-0.077-0.929-0.409-1.256l-4.632-4.49c-0.387-0.376-0.522-0.94-0.345-1.449 0.172-0.508 0.611-0.879 1.14-0.962l6.375-0.925c0.485-0.050 0.911-0.345 1.129-0.781l2.809-5.759c0.067-0.128 0.153-0.246 0.256-0.346l0.115-0.090c0.060-0.067 0.13-0.122 0.207-0.167l0.14-0.051 0.218-0.090h0.54c0.482 0.050 0.907 0.339 1.129 0.77l2.846 5.734c0.205 0.419 0.604 0.711 1.065 0.781l6.374 0.925c0.539 0.077 0.99 0.449 1.169 0.962 0.167 0.514 0.022 1.079-0.372 1.449l-4.798 4.541z"></path>
</symbol>
<symbol id="icon-add-prod" viewBox="0 0 32 32">
<path d="M31.196 15.598c0-1.231-0.998-2.228-2.228-2.228h-11.141v-11.141c0-1.231-0.998-2.228-2.228-2.228s-2.228 0.998-2.228 2.228v11.141h-11.141c-1.231 0-2.228 0.998-2.228 2.228s0.998 2.228 2.228 2.228h11.141v11.141c0 1.231 0.998 2.228 2.228 2.228s2.228-0.998 2.228-2.228v-11.141h11.141c1.231 0 2.228-0.998 2.228-2.228z"></path>
</symbol>


  </defs>
</svg>
